# xmcd
#
# Track frame offsets:
#	150
#	15767
#	31931
#	48818
#	62956
#	77698
#	89238
#	104025
#	116670
#	132436
#	148492
#	166172
#
# Disc length: 2411 seconds
#
# Revision: 1
# Processed by: cddbd v1.5.2PL0 Copyright (c) Steve Scherf et al.
# Submitted via: audiograbber 1.83.01
#
DISCID=a509690c
DTITLE=Miley Cyrus - Breakout
DYEAR=2008
DGENRE=
TTITLE0=Breakout
TTITLE1=7 Things
TTITLE2=The Driveway
TTITLE3=Girls Just Wanna Have Fun
TTITLE4=Full Circle
TTITLE5=Fly On The Wall
TTITLE6=Bottom Of The Ocean
TTITLE7=Wake Up America
TTITLE8=These Four Walls
TTITLE9=Simple Song
TTITLE10=Goodbye
TTITLE11=See You Again
EXTD=
EXTT0=
EXTT1=
EXTT2=
EXTT3=
EXTT4=
EXTT5=
EXTT6=
EXTT7=
EXTT8=
EXTT9=
EXTT10=
EXTT11=
PLAYORDER=
